P1
# Created by GIMP version 3.0.4 PNM plug-in
32 64
0000000000000000000000000000000000000000000000000000000000000000000000
0000000000000000000000000000111000111111110011100000000000001011001011
0001001011000000000000100110100110010010110000000000001000101100100100
1011000000000000111010110010010011110000000000000011101101100100000100
0000000000000000000000000000010000000000000000000000000000000100000000
0000000100011001001111110000000000000000000100010000000000000000000000
0000010000001111100000000000000011001100000010000000000000000000100011
1110001100000000000000000010000100000001110000000000000000110001000000
0001000000000000000001110110100001110000000000000000001100111000110000
0000010100000000000000000000000000100101100000000100100000000000001001
0010000000010000000001110000110100100011100100110001110111000101100001
1010010011100101111100010000000100100100101101011110000000000001111101
0010011100110000010101000011011100000110000111000101010000000000000000
0000000000000001000000000000000000000000000000000000000000000000000000
0000000000000000000100000000000000000000000000000001000000001100011101
0010000011001110011000111001110110100001111011101111001110111100111000
0011001011101101110010000001100000000000001111111000100000010000000000
0000000001000110000011000000000000000001010001000000000000001000000000
0001110111001110011000111101111010110001011010101110000101010110100111
0111001100110000010101110010001101101101101110000101100000001110001110
0110010000000000000000000000000011000000000000000000000000000000000000
0000000000000000000000000000000000000000000000000000000000000000000000
0000000000000000000000000000000000000000000000000000000000000000000000
0000000000000000000000000000000000000000000000000000000000000000000000
0000000000000000000000000000000000000000000000000000000000000000000000
0000000000000000000000000000000000000000000000000000000000000000000000
0000000000000000000000000000000000000000000000000000000000000000000000
0000000000000000000000000000000000000000000000000000000000000000000000
0000000000000000000000000000000000000000000000000000000000000000000000
000000000000000000